<?xml version="1.0" encoding="utf-8"?>
<!-- Generator: Adobe Illustrator 25.0.0, SVG Export Plug-In . SVG Version: 6.00 Build 0)  -->
<svg version="1.1" id="Warstwa_1" xmlns="http://www.w3.org/2000/svg" xmlns:xlink="http://www.w3.org/1999/xlink" x="0px" y="0px"
	 viewBox="0 0 90.6 45.2" style="enable-background:new 0 0 90.6 45.2;" xml:space="preserve">
<style type="text/css">
	.st0{fill:url(#SVGID_1_);}
	.st1{fill:url(#SVGID_2_);}
	.st2{fill:#FFFFFF;}
</style>
<g>
	<g>
		<linearGradient id="SVGID_1_" gradientUnits="userSpaceOnUse" x1="46.296" y1="11.2851" x2="60.0505" y2="11.2851">
			<stop  offset="0" style="stop-color:#F7941D"/>
			<stop  offset="0.4121" style="stop-color:#7D4900"/>
			<stop  offset="0.4487" style="stop-color:#885102"/>
			<stop  offset="0.6296" style="stop-color:#B9790B"/>
			<stop  offset="0.7883" style="stop-color:#DD9512"/>
			<stop  offset="0.9171" style="stop-color:#F3A716"/>
			<stop  offset="1" style="stop-color:#FBAD18"/>
		</linearGradient>
		<path class="st0" d="M50,17c0,1.1,0,2.1,0,3.1c0,0.5,0,0.5-0.5,0.4c-1.7-0.1-3.2-1.7-3.2-3.6c0-3,0-6,0-9.1c0-0.3,0.1-0.4,0.4-0.4
			c1.9,0,3.8,0,5.6,0c1.1,0,1.9,0.8,1.9,1.8c0,1-0.8,1.8-1.9,1.8c-0.8,0-1.5,0-2.3,0c0,0.7,0,1.4,0,2.2c0.1,0,0.2,0,0.3,0
			c0.7,0,1.4,0,2.2,0c2.1-0.1,4.1-2.3,3.9-4.3c-0.2-1.8-1.8-3.4-3.7-3.4c-1.9-0.1-3.9,0-5.8,0c-0.6,0-0.6,0-0.6-0.6
			c0-0.9,0-1.7,0-2.6c0-0.1,0-0.3,0-0.4c0.1,0,0.2,0,0.2,0C48.7,2,50.9,2,53,2c3.8,0.2,6.9,3.5,7,7.3c0.1,4-3.3,7.7-7.6,7.7
			C51.6,17,50.8,17,50,17z"/>
		<linearGradient id="SVGID_2_" gradientUnits="userSpaceOnUse" x1="30.5775" y1="11.3025" x2="44.3286" y2="11.3025">
			<stop  offset="0" style="stop-color:#F7941D"/>
			<stop  offset="0.4121" style="stop-color:#7D4900"/>
			<stop  offset="0.4487" style="stop-color:#885102"/>
			<stop  offset="0.6296" style="stop-color:#B9790B"/>
			<stop  offset="0.7883" style="stop-color:#DD9512"/>
			<stop  offset="0.9171" style="stop-color:#F3A716"/>
			<stop  offset="1" style="stop-color:#FBAD18"/>
		</linearGradient>
		<path class="st1" d="M44.3,2c0,1.1,0,2.2,0,3.3c0,0.2-0.1,0.3-0.3,0.2c-0.8,0-1.6,0-2.3,0c-1.1,0-2.2,0-3.3,0c-2,0-3.7,1.3-4,3.2
			c-0.1,0.7-0.1,1.4,0.2,2c0.9,1.6,2.1,2.6,4,2.6c0.7,0,1.4,0,2.1,0c0-0.7,0-1.4,0-2.2c-0.6,0-1.2,0-1.8,0c-0.4,0-0.7,0-1.1-0.1
			c-0.8-0.2-1.4-1.1-1.3-1.9c0.1-0.9,0.8-1.6,1.7-1.6c2,0,4.1,0,6.1,0c0,0,0,0,0.1,0c0,0.1,0,0.2,0,0.3c0,3,0,6,0,8.9
			c0,1.8-1.2,3.2-2.9,3.6c0,0,0,0,0,0c-0.7,0.1-0.7,0.1-0.7-0.6c0-0.9,0-1.9,0-2.9c-0.2,0-0.4,0-0.7,0c-1.1-0.1-2.3,0-3.4-0.2
			c-3.2-0.7-5.7-3.4-6-6.5c-0.3-3.3,1.6-6.4,4.6-7.7C36.1,2.2,37,2,38,2C40,2,42,2,44,2C44.1,2,44.2,2,44.3,2z"/>
	</g>
	<g>
		<path class="st2" d="M12.3,33.7c-0.8-0.4-1.4-1-1.8-1.8c-0.4-0.8-0.7-1.6-0.7-2.6c0-1,0.2-1.8,0.7-2.6c0.4-0.8,1-1.3,1.8-1.8
			c0.8-0.4,1.6-0.6,2.6-0.6c0.8,0,1.5,0.2,2.2,0.5c0.7,0.3,1.3,0.8,1.7,1.3l-1.4,1.2c-0.3-0.4-0.7-0.7-1.1-0.9
			c-0.5-0.2-0.9-0.3-1.4-0.3c-0.6,0-1.1,0.1-1.6,0.4c-0.4,0.3-0.8,0.7-1,1.1c-0.2,0.5-0.4,1-0.4,1.7c0,0.6,0.1,1.2,0.4,1.6
			c0.2,0.5,0.6,0.9,1,1.2c0.4,0.3,0.9,0.4,1.5,0.4c0.4,0,0.8-0.1,1.2-0.2c0.3-0.1,0.6-0.3,0.8-0.5v-1.5h-2v-1.6h4.1v3.7
			c-0.9,1.2-2.3,1.8-4.1,1.8C13.9,34.4,13,34.1,12.3,33.7z"/>
		<path class="st2" d="M25,33.7c-0.8-0.4-1.4-1-1.8-1.8c-0.4-0.8-0.6-1.6-0.6-2.6c0-1,0.2-1.8,0.6-2.6c0.4-0.8,1-1.3,1.8-1.8
			c0.8-0.4,1.7-0.6,2.7-0.6c1,0,1.9,0.2,2.7,0.6c0.8,0.4,1.4,1,1.8,1.8c0.4,0.8,0.6,1.6,0.6,2.6c0,1-0.2,1.8-0.6,2.6
			c-0.4,0.8-1,1.3-1.8,1.8c-0.8,0.4-1.7,0.6-2.7,0.6C26.7,34.3,25.8,34.1,25,33.7z M29.2,32.1c0.4-0.3,0.8-0.7,1.1-1.1
			s0.4-1.1,0.4-1.7c0-0.6-0.1-1.2-0.4-1.7c-0.3-0.5-0.6-0.9-1.1-1.1c-0.4-0.3-1-0.4-1.6-0.4c-0.6,0-1.1,0.1-1.6,0.4
			c-0.5,0.3-0.8,0.7-1.1,1.1c-0.2,0.5-0.4,1.1-0.4,1.7c0,0.6,0.1,1.2,0.4,1.7c0.2,0.5,0.6,0.9,1.1,1.1c0.5,0.3,1,0.4,1.6,0.4
			C28.3,32.5,28.8,32.4,29.2,32.1z"/>
		<path class="st2" d="M37.1,24.5h2.1v7.9h4.2v1.7h-6.3V24.5z"/>
		<path class="st2" d="M53.8,25.1c0.7,0.4,1.3,1,1.7,1.7c0.4,0.7,0.6,1.6,0.6,2.5c0,1-0.2,1.8-0.6,2.5c-0.4,0.7-1,1.3-1.7,1.7
			c-0.7,0.4-1.6,0.6-2.5,0.6h-4v-9.7h4C52.2,24.5,53,24.7,53.8,25.1z M52.6,32c0.4-0.3,0.7-0.6,0.9-1.1c0.2-0.5,0.3-1,0.3-1.6
			c0-0.6-0.1-1.2-0.3-1.6c-0.2-0.5-0.5-0.8-0.9-1.1c-0.4-0.3-0.8-0.4-1.4-0.4h-1.9v6.2h1.9C51.8,32.4,52.2,32.3,52.6,32z"/>
		<path class="st2" d="M60.3,24.5h6.8v1.7h-4.7v2.2h4.2v1.7h-4.2v2.3h4.8v1.7h-6.9V24.5z"/>
		<path class="st2" d="M73.6,28l0,6.1h-2.1v-9.7h1.3l5.9,6.1l-0.1-6.1h2.1v9.7h-1.3L73.6,28z"/>
	</g>
	<g>
		<path class="st2" d="M25.9,38.5c0.3,0.2,0.6,0.4,0.7,0.7c0.2,0.3,0.3,0.6,0.3,1c0,0.4-0.1,0.7-0.3,1c-0.2,0.3-0.4,0.5-0.7,0.7
			c-0.3,0.2-0.7,0.3-1.1,0.3h-1.1v1.9h-1.3v-5.8h2.4C25.3,38.3,25.6,38.4,25.9,38.5z M25.4,40.9c0.2-0.2,0.2-0.4,0.2-0.7
			s-0.1-0.5-0.2-0.7c-0.2-0.2-0.4-0.3-0.7-0.3h-1v1.8h1C25,41.1,25.2,41.1,25.4,40.9z"/>
		<path class="st2" d="M31.1,38.3c0.4,0,0.8,0.1,1.1,0.2c0.3,0.2,0.6,0.4,0.7,0.7c0.2,0.3,0.3,0.6,0.3,1c0,0.4-0.1,0.7-0.3,1
			c-0.2,0.3-0.4,0.5-0.8,0.6l1.5,2.3h-1.5L30.8,42h-1v2.1h-1.3v-5.8H31.1z M31.6,40.7c0.2-0.2,0.3-0.4,0.3-0.6
			c0-0.3-0.1-0.5-0.2-0.6c-0.2-0.2-0.4-0.2-0.6-0.2h-1.1V41h1C31.1,41,31.4,40.9,31.6,40.7z"/>
		<path class="st2" d="M36.4,38.3v5.8h-1.3v-5.8H36.4z"/>
		<path class="st2" d="M39.7,40.4l0,3.7h-1.3v-5.8h0.8l3.5,3.7l0-3.7H44v5.8h-0.8L39.7,40.4z"/>
		<path class="st2" d="M47.3,44.1v-4.8h-1.7v-1h4.7v1h-1.7v4.8H47.3z"/>
		<path class="st2" d="M51.9,38.3h4v1h-2.8v1.3h2.5v1h-2.5V43H56v1h-4.1V38.3z"/>
		<path class="st2" d="M60.3,38.3c0.4,0,0.8,0.1,1.1,0.2c0.3,0.2,0.6,0.4,0.7,0.7c0.2,0.3,0.3,0.6,0.3,1c0,0.4-0.1,0.7-0.3,1
			c-0.2,0.3-0.4,0.5-0.8,0.6l1.5,2.3h-1.5L60.1,42h-1v2.1h-1.3v-5.8H60.3z M60.8,40.7c0.2-0.2,0.3-0.4,0.3-0.6
			c0-0.3-0.1-0.5-0.2-0.6c-0.2-0.2-0.4-0.2-0.6-0.2H59V41h1C60.4,41,60.6,40.9,60.8,40.7z"/>
		<path class="st2" d="M64.9,43.9c-0.3-0.2-0.6-0.3-0.8-0.5l0.5-0.8c0.2,0.2,0.4,0.3,0.6,0.4c0.2,0.1,0.5,0.1,0.8,0.1
			c0.3,0,0.5-0.1,0.7-0.2c0.1-0.1,0.2-0.2,0.2-0.4c0-0.1,0-0.2-0.1-0.3c-0.1-0.1-0.1-0.2-0.3-0.2c-0.1-0.1-0.3-0.2-0.6-0.2l-0.4-0.1
			c-0.4-0.1-0.8-0.3-1.1-0.6c-0.3-0.2-0.4-0.6-0.4-1.1c0-0.4,0.1-0.7,0.3-0.9c0.2-0.3,0.4-0.5,0.7-0.6c0.3-0.1,0.7-0.2,1.1-0.2
			c0.3,0,0.7,0.1,1,0.2c0.3,0.1,0.6,0.3,0.8,0.5l-0.5,0.9c-0.2-0.2-0.4-0.3-0.6-0.4c-0.2-0.1-0.4-0.1-0.7-0.1
			c-0.3,0-0.5,0.1-0.6,0.2c-0.1,0.1-0.2,0.2-0.2,0.4c0,0.1,0,0.2,0.1,0.3c0,0.1,0.1,0.1,0.2,0.2c0.1,0.1,0.3,0.1,0.5,0.2l0.4,0.1
			c0.5,0.2,0.9,0.4,1.2,0.7c0.3,0.3,0.4,0.7,0.4,1.2c0,0.3-0.1,0.6-0.2,0.8c-0.2,0.3-0.4,0.5-0.7,0.6s-0.7,0.2-1.2,0.2
			C65.7,44.2,65.3,44.1,64.9,43.9z"/>
	</g>
</g>
</svg>
